<svg xmlns="http://www.w3.org/2000/svg" viewBox="0 0 109.99 159.89"><defs><style>.cls-1{fill:#fff;}</style></defs><title>bp-iso-white</title><g id="Capa_2" data-name="Capa 2"><g id="Capa_1-2" data-name="Capa 1"><path class="cls-1" d="M42.05,72.29c-.21-.54-.4-1.09-.6-1.63a71.85,71.85,0,0,0,14.4,49.05,78.09,78.09,0,0,0,46.32,9.79l1.08-.12a8.56,8.56,0,0,0,1.53-.44A8.15,8.15,0,0,0,110,121.8,78.06,78.06,0,0,1,42.05,72.29Z"/><path class="cls-1" d="M109.43,118.35a8.14,8.14,0,0,0-5.05-4.79l0,0A78,78,0,0,1,49.46,43.05a71.07,71.07,0,0,0-8,27.61c.2.54.39,1.09.6,1.63A78.06,78.06,0,0,0,110,121.8,8,8,0,0,0,109.43,118.35Z"/><path class="cls-1" d="M36,89.29a78.06,78.06,0,0,1,32.54-77.1A75.68,75.68,0,0,1,79,6.13h0a.88.88,0,0,0,.52-.79s0-.27,0-.37-.1-.46-.15-.68a6.86,6.86,0,0,0-.32-.9c-1,.28-2.08.59-3.11.92A78,78,0,0,0,21.59,80a76.94,76.94,0,0,0,1.08,11.54A77.85,77.85,0,0,0,63.94,148a78.69,78.69,0,0,0,15.16,5.88,8.14,8.14,0,0,0-3.79-9.21l0,0A77.81,77.81,0,0,1,36,89.29Z"/><path class="cls-1" d="M79.1,153.83a8.15,8.15,0,0,1-6.53,5.94,7.78,7.78,0,0,1-1.59.11l-1.08-.11A78,78,0,0,1,56.09,7.39a80.35,80.35,0,0,1,8.92-2l.28,0v0l.26,0a18,18,0,0,0,9.72-5A.84.84,0,0,1,75.9,0a.79.79,0,0,1,.34.06l.15.11A7.16,7.16,0,0,1,79,3.37c-1,.28-2.08.59-3.11.92A78,78,0,0,0,21.59,80a76.94,76.94,0,0,0,1.08,11.54A77.85,77.85,0,0,0,63.94,148,78.69,78.69,0,0,0,79.1,153.83Z"/></g></g></svg>