<svg xmlns="http://www.w3.org/2000/svg" viewBox="0 0 606.69 546.87"><defs><style>.cls-1{fill:none;}</style></defs><g id="Capa_2" data-name="Capa 2"><g id="Capa_1-2" data-name="Capa 1"><path d="M588.83,513.44c-14.39,1.15-62.74,4.8-82.76.67-6.75-1.39-13.71-1.73-20.31-3.74a92.88,92.88,0,0,1-11.7-5c-3.39-1.56-7.05-.78-10.58-.08-6.83,1.35-13.56,3.18-20.35,4.73-13.94,3.18-28.15,5.86-42.47,6.35a37.41,37.41,0,0,1-11.14-1.07c-.47-.19-.9-.38-1.3-.57s-.9-.46-1.29-.69a11.14,11.14,0,0,1-2-1.52,6.76,6.76,0,0,1-1.95-3,7.45,7.45,0,0,1-.24-1.75c-.39-2.51-.68-5-1-7.56-.57-4.18-4-6.46-7.86-4.87a85.25,85.25,0,0,0-9.39,4.76c-9.51,5.43-18.79,11.29-28.48,16.37-10.32,5.41-26.05,2.65-33.84-6-4.06-4.52-6.93-10.12-10.18-15.33-.35-.56.11-2,.67-2.69,13-15.23,23.05-32.33,32.58-49.79,16.21-29.72,29.21-60.82,40.69-92.63,8.54-23.68,15.19-47.73,17.21-72.9.48-6,1-12.14-1.37-18-2.67-6.66-10.34-7.64-14.26-7-3.23.53-8.45,3.11-11.71,5.84a132.48,132.48,0,0,0-15.24,15.37c-9.8,11.44-16.57,24.86-24.19,37.76-21,35.5-33.81,73.9-41.85,114.09-4.46,22.27-3.67,44.18,4.95,65.51a4.18,4.18,0,0,1-.79,3.48c-10.2,12.21-23.12,21-36.78,28.81a37.22,37.22,0,0,1-25.21,4.67c-2.35-.41-4.57-1.58-7.1-2.49,3-4.66,5.66-8.55,8.14-12.53s5-8.18,7.37-12.35c21.26-37.68,36.66-77.91,50.31-118.76,14.92-44.68,21.7-91.1,26.47-137.81.88-8.68,1.18-17.42-1.23-26-2.81-10-8.9-11.79-16-4.23A102.42,102.42,0,0,0,271.3,231c-16.13,26.93-29.15,55.45-40.65,84.58-16.93,42.89-28.8,87.31-37.54,132.56-3.27,17-5.24,34.06-3.44,51.38.79,7.62,2.08,15.14,6,21.93,2.46,4.32,1.65,6.63-2.28,9.83-2,1.65-8.17.52-18.73-5.17-8.71-4.68-14.67.51-19.93,5.09-1.34,1.16-2.72,2.36-4.23,3.52-2.3,1.77-7.53-3.17-11.35-6.78-2.73-2.58-5.09-4.8-7.48-6-6.68-3.34-11.31,2.75-14.37,6.78-1.68,2.21-3.59,4.71-5.28,5.48a4.4,4.4,0,1,0,3.64,8c3.72-1.69,6.34-5.13,8.65-8.17a23.92,23.92,0,0,1,3.61-4.13,38.82,38.82,0,0,1,5.18,4.42c4.3,4.06,10.23,9.66,16.38,9.66a10.24,10.24,0,0,0,6.39-2.29c1.72-1.33,3.28-2.68,4.65-3.87,5.45-4.75,6.91-5.61,10-4,7.37,4,17.95,9.63,26.29,5.93a19.26,19.26,0,0,0,4.86-3.67,30.59,30.59,0,0,0,3-3.55c5.34,3.74,11.19,4.67,17.24,4.7a46.74,46.74,0,0,0,23.69-5.83c13.59-7.69,26.55-16.26,37.14-28,.57-.63,1.23-1.17,2-1.91.57.92,1.1,1.61,1.48,2.37,7,14,18.06,22.23,33.77,24.19,6,.75,11.77.65,17.2-2.07,7-3.51,13.92-7.16,20.73-11,5-2.82,9.8-6.05,15-9.32.36,1.69.61,2.92.87,4.15C375,516,378.2,520,384,522.35l0,0c11.88,4.83,31.66,1.14,40.8-.38,14.08-2.36,27.74-6.65,41.77-9.13,3-.53,4-.25,6.64,1.05,5.76,2.86,12,4.36,18.23,6,24.66,6.6,85.74,1.44,106.54-1.16,2.63-.33,7.72,0,8.58-3.22C608.32,508.86,591.71,513.21,588.83,513.44ZM203,517.13c-1.3-4.88-2.85-9.12-3.53-13.49-2.55-16.54-1.14-33,1.88-49.33,9-48.61,21.84-96.16,40.48-142a602.93,602.93,0,0,1,34.61-72.19c3.2-5.59,7.28-10.65,10.72-16.1,6.33-10,5.59,1.23,5.73,3.89.7,13.18-1.38,26.15-3,39.16C285.7,301.2,279.55,335,270.06,368c-7.87,27.42-19.2,53.57-29.79,80a387.82,387.82,0,0,1-33.13,64A30.61,30.61,0,0,1,203,517.13ZM286.81,484a91.66,91.66,0,0,1-5.52-24.73c-1.15-16.6,1.62-32.78,5.77-48.75,6-23,11.92-46.14,22.94-67.36,9.46-18.22,19.46-36.19,30.11-53.73,4.77-7.84,11.37-14.68,17.8-21.33a41.13,41.13,0,0,1,10.19-7.67,3.78,3.78,0,0,1,5.13,2.4,35.05,35.05,0,0,1,.88,6.65c-.09,14.77-2.88,29.17-6.28,43.47-4.74,20-12.51,38.91-19.71,58a522.42,522.42,0,0,1-44.53,90.43c-4.86,7.88-10.44,15.32-15.69,23Z"/><path class="cls-1" d="M31.58,419.35v-21l-8.74,4.28Z"/><path d="M297.43,45.32C290,22.67,274.78,8.17,251.71,2.24c-11.76-3-23.77-2.77-35.64-.53-19.95,3.78-38.16,11.89-55.15,22.91C141.44,37.24,126,53.92,112.39,72.47,87.17,106.92,69.46,145.1,57,185.79,45.47,223.4,39.45,262.08,35.16,301.06c-3.07,27.88-3.77,55.88-3.8,83.91,0,2.1-.54,3.29-2.5,4.16-3.81,1.69-7.47,3.72-11.26,5.44-2,.89-4.1,1.35-6.09,2.15a92.54,92.54,0,0,0-8.95,3.92,4.62,4.62,0,0,0-2,6.31c1.09,2.38,3.33,3.32,6.14,2.58.44-.12.87-.27,1.3-.42,6.4-2.2,6.4-2.2,9.75,3.78l.26.48c7.68,14.07,11.13,29.64,15.92,44.74a11.45,11.45,0,0,1,.23,2.43c1.11,12.74,2,25.49,3.39,38.19,1.39,13,3.21,25.94,7.56,38.34a32.91,32.91,0,0,0,3.89,7.4,5.1,5.1,0,0,0,6,2.14,5.19,5.19,0,0,0,3.81-4.8,38.39,38.39,0,0,0,.32-6.51,86.54,86.54,0,0,0-1.24-12.16c-4.54-21.55-9.26-43.05-13.92-64.57a19.74,19.74,0,0,1-.62-3.19c-.83-20-1.61-40-2.47-60.05a3.12,3.12,0,0,1,1.84-3.19c3.58-2.13,7.1-4.37,10.6-6.65,20.07-13.07,44.26-30.21,60-39.1a135.1,135.1,0,0,1,12.37-5.76c13.5-5.91,27.2-6.39,41.14-1.95a4.81,4.81,0,0,1,2.34,1.56c2.05,2.82,4.48,3.67,6.88,2.19a4.94,4.94,0,0,0,1.39-7.17,19.12,19.12,0,0,0-6.37-5.07c-4-1.78-11.5-3.23-17.25-3.75a60.6,60.6,0,0,0-28,4,164.39,164.39,0,0,0-21,9.65c-11,6.23-21.2,13.59-31.62,20.65C65.52,365.87,58,371,50.44,376c-3,2-6.07,3.95-9.69,6.3v-3c.31-31.66,1.6-63.25,5.81-94.68,5-37.34,11.57-74.34,24-110.07,12.81-36.82,30-71.31,53.81-102.34,17-22.16,37.48-40.1,63.18-51.54,16.05-7.14,32.64-12,50.53-11,24.86,1.42,43.52,15.69,50.58,39.54a85.53,85.53,0,0,1,3.78,20.79c.44,12.19-.21,24.44-.52,36.66-.1,3.66,1.16,5.92,4.06,6.26s5.08-1.61,5.36-5.4c.45-6.15.88-12.3,1.05-18.46C302.8,74.31,302.14,59.6,297.43,45.32Zm-265.85,374-8.74-16.73,8.74-4.28Z"/></g></g></svg>