<svg xmlns="http://www.w3.org/2000/svg" viewBox="0 0 1335.77 190.35"><defs><style>.cls-1{fill:#fff;}</style></defs><title>bp-isologo-white</title><g id="Capa_2" data-name="Capa 2"><g id="Capa_1-2" data-name="Capa 1"><path class="cls-1" d="M183.88,84.6a21.53,21.53,0,0,1-6.52,7.67,31.73,31.73,0,0,1-10.1,4.86,46.73,46.73,0,0,1-13.17,1.73H115.22V9.19h36.95a42.84,42.84,0,0,1,11.88,1.54,27.28,27.28,0,0,1,9.15,4.43,20.56,20.56,0,0,1,5.88,7,19.74,19.74,0,0,1,2.11,9.11v.26a22.45,22.45,0,0,1-1.34,8.09,21,21,0,0,1-3.52,6,21.55,21.55,0,0,1-4.92,4.3A38.69,38.69,0,0,1,166,52.82a45.22,45.22,0,0,1,7.67,2.75,24,24,0,0,1,6.46,4.35,20.55,20.55,0,0,1,4.41,6.14,18.75,18.75,0,0,1,1.66,8.12v.26A22,22,0,0,1,183.88,84.6Zm-9.35-52.75a14.64,14.64,0,0,0-5.77-12.06q-5.76-4.58-16.65-4.58H121.88V50.69h29.59a33.27,33.27,0,0,0,9.22-1.22,22.27,22.27,0,0,0,7.3-3.55,16.24,16.24,0,0,0,4.81-5.81,17.8,17.8,0,0,0,1.73-8Zm5,42.35a14.55,14.55,0,0,0-7-12.92q-7-4.58-20.3-4.57H121.88V92.84h32.54q11.52,0,18.31-5a15.76,15.76,0,0,0,6.79-13.44Z"/><path class="cls-1" d="M279.19,98.86,267.78,73.75h-52.9l-11.4,25.11h-6.92L238.32,8.55h6.41l41.76,90.31Zm-37.79-83L217.7,67.73H265Z"/><path class="cls-1" d="M371.55,98.86,308.39,19.18V98.86H302V9.19h6.27l61.88,78v-78h6.4V98.86Z"/><path class="cls-1" d="M474.67,98.86l-11.4-25.11H410.36L399,98.86H392L433.8,8.55h6.41L482,98.86Zm-37.79-83-23.7,51.88h47.27Z"/><path class="cls-1" d="M567,98.86,503.88,19.18V98.86h-6.41V9.19h6.28l61.87,78v-78H572V98.86Z"/><path class="cls-1" d="M670.15,98.86l-11.4-25.11H605.84l-11.4,25.11h-6.92L629.29,8.55h6.4l41.76,90.31Zm-37.79-83-23.7,51.88h47.27Z"/><path class="cls-1" d="M758.54,54.15A27.87,27.87,0,0,1,750.79,64a33.51,33.51,0,0,1-11.53,6,48.69,48.69,0,0,1-14.15,2h-15v26.9H690.39V9.19H727a43.21,43.21,0,0,1,14.41,2.24,30.56,30.56,0,0,1,10.76,6.34,27.63,27.63,0,0,1,6.79,9.8,32.58,32.58,0,0,1,2.37,12.62v.25A31.43,31.43,0,0,1,758.54,54.15ZM741.38,40.57q0-6.66-4.3-10.12T725.36,27H710.12V54.41h15.63q7.43,0,11.53-3.91a12.83,12.83,0,0,0,4.1-9.67Z"/><path class="cls-1" d="M832.84,98.86l-8.2-20.11H786.72l-8.19,20.11H758.41L796.84,8.55H815l38.43,90.31ZM805.68,32.25,793.77,61.33H817.6Z"/><path class="cls-1" d="M918.28,98.86l-19.21-28.7h-15.5v28.7H863.84V9.19h41q16,0,24.92,7.81t8.9,21.78V39q0,10.89-5.31,17.74a30.79,30.79,0,0,1-13.9,10l21.9,32Zm.39-59.06q0-6.4-4.1-9.6T903.17,27h-19.6V52.74h20q7.31,0,11.21-3.46a11.68,11.68,0,0,0,3.91-9.22Z"/><path class="cls-1" d="M1023.58,98.86l-8.2-20.11H977.47l-8.2,20.11H949.16L987.59,8.55h18.19l38.43,90.31ZM996.43,32.25,984.51,61.33h23.83Z"/><path class="cls-1" d="M1133.75,71.7a41.57,41.57,0,0,1-9.8,14.22,46.45,46.45,0,0,1-15.11,9.48,52.12,52.12,0,0,1-19.29,3.46h-35V9.19h35a53.14,53.14,0,0,1,19.29,3.39A45.65,45.65,0,0,1,1124,22a41.78,41.78,0,0,1,9.8,14.15,44.52,44.52,0,0,1,3.46,17.62V54A44.92,44.92,0,0,1,1133.75,71.7ZM1116.59,54a29.33,29.33,0,0,0-2-10.89,25.62,25.62,0,0,0-5.51-8.58,24.38,24.38,0,0,0-8.52-5.57,29.64,29.64,0,0,0-11-2h-15.24V81.05h15.24a30.47,30.47,0,0,0,11-1.92,23.7,23.7,0,0,0,8.52-5.51,25.86,25.86,0,0,0,5.51-8.45,28.7,28.7,0,0,0,2-10.89Z"/><path class="cls-1" d="M1239.05,72a45.95,45.95,0,0,1-25,24.73,49.46,49.46,0,0,1-19.15,3.65,48.94,48.94,0,0,1-19.09-3.65,47.49,47.49,0,0,1-15-9.87,44.13,44.13,0,0,1-9.87-14.6,46,46,0,0,1-3.52-18V54a45.2,45.2,0,0,1,3.59-18,45.8,45.8,0,0,1,25-24.72,51.9,51.9,0,0,1,38.24,0,47.27,47.27,0,0,1,15,9.87,44.13,44.13,0,0,1,9.87,14.6,46.15,46.15,0,0,1,3.52,18V54A45.3,45.3,0,0,1,1239.05,72Zm-17-18a30,30,0,0,0-2-10.89,26.93,26.93,0,0,0-14.29-15.05,26.35,26.35,0,0,0-10.88-2.24,26.88,26.88,0,0,0-11,2.18,25,25,0,0,0-8.45,6,28.29,28.29,0,0,0-5.51,8.9,29.47,29.47,0,0,0-2,10.83V54a29.91,29.91,0,0,0,2,10.89,26.88,26.88,0,0,0,5.64,9,27.16,27.16,0,0,0,8.58,6.08,26.09,26.09,0,0,0,10.95,2.25A27,27,0,0,0,1206,80a24.92,24.92,0,0,0,8.52-6A28.52,28.52,0,0,0,1220,65.1a29.41,29.41,0,0,0,2-10.82Z"/><path class="cls-1" d="M1312.71,98.86,1292.6,68.11l-20.24,30.75h-22.42l31.26-45.6-30-44.07h23.06l18.83,29.08,19-29.08h22.42l-30,43.81,31.26,45.86Z"/><path class="cls-1" d="M860,188.28a16.61,16.61,0,0,1-8.53,2.07,17.51,17.51,0,0,1-7.31-1.53,19,19,0,0,1-5.88-4.1,18.65,18.65,0,0,1-3.89-6,18.92,18.92,0,0,1-1.4-7.28v-.14a19,19,0,0,1,1.4-7.28,19.48,19.48,0,0,1,3.89-6.06,18.58,18.58,0,0,1,5.88-4.18,17.51,17.51,0,0,1,7.31-1.53,18.3,18.3,0,0,1,4.67.55,17.54,17.54,0,0,1,3.89,1.49,19.16,19.16,0,0,1,3.25,2.17,31.87,31.87,0,0,1,2.74,2.57l-2.49,2.57a27.7,27.7,0,0,0-5.21-4.21,12.79,12.79,0,0,0-6.92-1.79,14.07,14.07,0,0,0-5.82,1.21,14.64,14.64,0,0,0-4.64,3.3,15.92,15.92,0,0,0-3.1,4.94,16.27,16.27,0,0,0-1.14,6.11v.14a16,16,0,0,0,1.18,6.15,15.77,15.77,0,0,0,3.21,5,14.67,14.67,0,0,0,4.74,3.34,14.15,14.15,0,0,0,5.85,1.21,13.5,13.5,0,0,0,6.89-1.75,21,21,0,0,0,5.31-4.32l2.43,2.15A25.9,25.9,0,0,1,860,188.28Z"/><path class="cls-1" d="M895.52,156.39a15.46,15.46,0,0,0-6,1.18,14.35,14.35,0,0,0-5,3.49,17.17,17.17,0,0,0-3.46,5.71,21.86,21.86,0,0,0-1.29,7.81V189.5h-3.49V153.11h3.49v10.34a20.76,20.76,0,0,1,2.72-4.49,18,18,0,0,1,3.71-3.54,15.89,15.89,0,0,1,4.53-2.21,16.07,16.07,0,0,1,5.17-.67v3.85Z"/><path class="cls-1" d="M905.73,178.76a15.66,15.66,0,0,0,3.22,4.48,13.35,13.35,0,0,0,4.4,2.8,14.19,14.19,0,0,0,5.19,1,14.87,14.87,0,0,0,7.26-1.64,21.6,21.6,0,0,0,5.26-4.07l2.42,2.14a25.25,25.25,0,0,1-6.32,5,17.84,17.84,0,0,1-8.76,2,17.63,17.63,0,0,1-6.83-1.35,17.31,17.31,0,0,1-5.72-3.86,18.06,18.06,0,0,1-3.9-6,20.23,20.23,0,0,1-1.43-7.78v-.14a20.57,20.57,0,0,1,1.32-7.39,18.94,18.94,0,0,1,3.64-6,17.12,17.12,0,0,1,5.46-4.07,15.65,15.65,0,0,1,6.85-1.5,16,16,0,0,1,6.92,1.46,15.6,15.6,0,0,1,5.24,4,18.29,18.29,0,0,1,3.35,6,23.13,23.13,0,0,1,1.18,7.53v.79a4,4,0,0,1-.07.64H904.23A15.74,15.74,0,0,0,905.73,178.76Zm25-9.17a20.39,20.39,0,0,0-1.11-5.32,14.8,14.8,0,0,0-2.5-4.49,11.9,11.9,0,0,0-4-3.14,13,13,0,0,0-10.59-.11,12.74,12.74,0,0,0-4.11,3,15.9,15.9,0,0,0-2.9,4.5,16.74,16.74,0,0,0-1.36,5.6Z"/><path class="cls-1" d="M969.66,189.5v-6.07a17.86,17.86,0,0,1-2.25,2.53,15.37,15.37,0,0,1-3,2.22,17.46,17.46,0,0,1-8.63,2.17,18.53,18.53,0,0,1-5.07-.71,14.49,14.49,0,0,1-4.5-2.14,11.31,11.31,0,0,1-3.24-3.57,9.75,9.75,0,0,1-1.25-5v-.15a10.53,10.53,0,0,1,1.18-5.06,10.68,10.68,0,0,1,3.24-3.71,15.26,15.26,0,0,1,5-2.29,25.16,25.16,0,0,1,6.49-.78,43.82,43.82,0,0,1,6.64.43,47.77,47.77,0,0,1,5.42,1.14V167q0-5.53-3.18-8.3t-8.81-2.77a21.49,21.49,0,0,0-6.13.82,29.83,29.83,0,0,0-5.28,2.11L945,155.74a37,37,0,0,1,6.07-2.33,25.07,25.07,0,0,1,6.85-.87q7.07,0,11.13,3.56t4.07,10.71V189.5Zm.07-17.78c-1.52-.38-3.31-.74-5.35-1.1a41.8,41.8,0,0,0-7-.53q-5.79,0-8.89,2.31a7.28,7.28,0,0,0-3.1,6.14v.15a7.08,7.08,0,0,0,.86,3.51,8.08,8.08,0,0,0,2.31,2.6,11.11,11.11,0,0,0,3.39,1.63,14.06,14.06,0,0,0,4,.57,16.77,16.77,0,0,0,5.28-.82,14.49,14.49,0,0,0,4.39-2.27,11,11,0,0,0,3-3.52,9.53,9.53,0,0,0,1.1-4.55Z"/><path class="cls-1" d="M1000.52,189.82a14.06,14.06,0,0,1-3.1.32,13.57,13.57,0,0,1-4-.57,8.35,8.35,0,0,1-5.42-5,11.47,11.47,0,0,1-.79-4.46V156.32h-5.28v-3.21h5.28V141.48h3.5v11.63h12.77v3.21H990.71v23.42q0,3.91,2,5.48a8.4,8.4,0,0,0,5.25,1.57,11.25,11.25,0,0,0,2.57-.28,15.43,15.43,0,0,0,2.78-.94v3.28A15.46,15.46,0,0,1,1000.52,189.82Z"/><path class="cls-1" d="M1013.9,143.62v-4.78h4.35v4.78Zm.43,45.88V153.11h3.49V189.5Z"/><path class="cls-1" d="M1047.22,189.78h-3l-16.34-36.67H1032l13.77,32.46,13.91-32.46h3.93Z"/><path class="cls-1" d="M1073.7,178.76a15.63,15.63,0,0,0,3.21,4.48,13.35,13.35,0,0,0,4.4,2.8,14.23,14.23,0,0,0,5.19,1,14.87,14.87,0,0,0,7.26-1.64,21.41,21.41,0,0,0,5.26-4.07l2.43,2.14a25.48,25.48,0,0,1-6.33,5,17.84,17.84,0,0,1-8.76,2,17.67,17.67,0,0,1-6.83-1.35,17.41,17.41,0,0,1-5.72-3.86,18.21,18.21,0,0,1-3.9-6,20.42,20.42,0,0,1-1.43-7.78v-.14a20.57,20.57,0,0,1,1.32-7.39,18.94,18.94,0,0,1,3.64-6,17.35,17.35,0,0,1,5.46-4.07,15.68,15.68,0,0,1,6.85-1.5,15.93,15.93,0,0,1,6.92,1.46,15.64,15.64,0,0,1,5.25,4,18.47,18.47,0,0,1,3.35,6,23.4,23.4,0,0,1,1.18,7.53v.79a5.71,5.71,0,0,1-.07.64h-30.19A15.93,15.93,0,0,0,1073.7,178.76Zm25-9.17a21.24,21.24,0,0,0-1.11-5.32,14.82,14.82,0,0,0-2.51-4.49,11.8,11.8,0,0,0-4-3.14,12.12,12.12,0,0,0-5.51-1.18,12.24,12.24,0,0,0-5.08,1.07,12.85,12.85,0,0,0-4.11,3,15.9,15.9,0,0,0-2.9,4.5,17,17,0,0,0-1.36,5.6Z"/><path class="cls-1" d="M1152.36,184a10,10,0,0,1-2.68,3.35,12.51,12.51,0,0,1-4,2.13,15.76,15.76,0,0,1-4.93.75,22.8,22.8,0,0,1-8-1.49,24.94,24.94,0,0,1-6.92-3.86l2.07-2.78a25,25,0,0,0,6.28,3.53,18.9,18.9,0,0,0,6.78,1.25,10.32,10.32,0,0,0,6.24-1.85,5.93,5.93,0,0,0,2.53-5.06v-.14a4.67,4.67,0,0,0-.78-2.71,7.34,7.34,0,0,0-2.14-2,14.23,14.23,0,0,0-3.07-1.43c-1.14-.37-2.36-.76-3.64-1.14-1.48-.42-3-.87-4.46-1.35a17.92,17.92,0,0,1-4-1.81,9.4,9.4,0,0,1-2.89-2.75,7,7,0,0,1-1.11-4v-.15a8.92,8.92,0,0,1,.9-4,9.8,9.8,0,0,1,2.46-3.17,11.16,11.16,0,0,1,3.78-2.1,15,15,0,0,1,4.85-.75,22.24,22.24,0,0,1,6.74,1.1,23,23,0,0,1,6.18,3l-1.86,2.93a23.66,23.66,0,0,0-5.39-2.64,17.53,17.53,0,0,0-5.81-1,9.32,9.32,0,0,0-6,1.81,5.59,5.59,0,0,0-2.25,4.52v.15a4.15,4.15,0,0,0,.86,2.6,7.45,7.45,0,0,0,2.24,1.88,17.93,17.93,0,0,0,3.25,1.39c1.24.41,2.5.8,3.78,1.18,1.48.42,2.93.89,4.36,1.39a15.75,15.75,0,0,1,3.85,1.92,9.67,9.67,0,0,1,2.75,2.81,7.53,7.53,0,0,1,1,4.06v.14A9.81,9.81,0,0,1,1152.36,184Z"/><path class="cls-1" d="M1179,189.82a14.06,14.06,0,0,1-3.1.32,13.57,13.57,0,0,1-4-.57,8.41,8.41,0,0,1-5.42-5,11.47,11.47,0,0,1-.79-4.46V156.32h-5.28v-3.21h5.28V141.48h3.5v11.63h12.77v3.21h-12.77v23.42q0,3.91,2,5.48a8.4,8.4,0,0,0,5.25,1.57,11.25,11.25,0,0,0,2.57-.28,15.18,15.18,0,0,0,2.78-.94v3.28A15.46,15.46,0,0,1,1179,189.82Z"/><path class="cls-1" d="M1219.25,189.5v-6.78a17,17,0,0,1-5,5.42,13.88,13.88,0,0,1-8.14,2.21,16.31,16.31,0,0,1-6.14-1.1,12.84,12.84,0,0,1-7.45-7.85,18.16,18.16,0,0,1-1-6V153.11h3.5v21.62a13.1,13.1,0,0,0,3,9q3,3.39,8.56,3.39a12.85,12.85,0,0,0,5-1,12.1,12.1,0,0,0,6.71-6.78,13.92,13.92,0,0,0,1-5.24v-21h3.5V189.5Z"/><path class="cls-1" d="M1266.34,189.5v-8.14a34.72,34.72,0,0,1-2.67,3.43,17.19,17.19,0,0,1-3.29,2.85,16.79,16.79,0,0,1-4.06,2,15.6,15.6,0,0,1-5,.75,17.22,17.22,0,0,1-6.46-1.28,17.4,17.4,0,0,1-5.67-3.71,18.27,18.27,0,0,1-4-6,19.66,19.66,0,0,1-1.54-8v-.14a19.61,19.61,0,0,1,1.54-8,18.67,18.67,0,0,1,4-6,17.61,17.61,0,0,1,5.67-3.78,17.05,17.05,0,0,1,11.45-.61,16,16,0,0,1,4.11,1.93,19.07,19.07,0,0,1,3.28,2.78,25.89,25.89,0,0,1,2.6,3.29V137.41h3.5V189.5Zm.22-18.27a15.84,15.84,0,0,0-1.26-6.39,15,15,0,0,0-8.08-8.09,14,14,0,0,0-5.54-1.15,14.76,14.76,0,0,0-5.62,1.07,13.36,13.36,0,0,0-4.54,3.07,14.33,14.33,0,0,0-3,4.89,18.1,18.1,0,0,0-1.11,6.53v.14a17.52,17.52,0,0,0,1.15,6.49,14.6,14.6,0,0,0,3.11,5,13.62,13.62,0,0,0,4.58,3.14,13.82,13.82,0,0,0,5.47,1.11,14,14,0,0,0,5.54-1.14,14.92,14.92,0,0,0,4.76-3.21,15.79,15.79,0,0,0,3.32-4.93,15.55,15.55,0,0,0,1.26-6.35Z"/><path class="cls-1" d="M1283.18,143.62v-4.78h4.35v4.78Zm.43,45.88V153.11h3.5V189.5Z"/><path class="cls-1" d="M1334.38,178.58a19,19,0,0,1-3.93,6.06,18.61,18.61,0,0,1-6,4.18,18.14,18.14,0,0,1-7.49,1.53,17.86,17.86,0,0,1-7.45-1.53,19.05,19.05,0,0,1-5.89-4.1,18.48,18.48,0,0,1-3.89-6,19.1,19.1,0,0,1-1.39-7.28v-.14a19,19,0,0,1,11.27-17.52,18.18,18.18,0,0,1,7.49-1.53,17.9,17.9,0,0,1,7.46,1.53,19.2,19.2,0,0,1,5.89,4.11,18.6,18.6,0,0,1,3.89,6,19.29,19.29,0,0,1,1.39,7.28v.14A19.29,19.29,0,0,1,1334.38,178.58Zm-2.32-7.28a16.51,16.51,0,0,0-1.15-6.14,15.32,15.32,0,0,0-3.19-5A14.73,14.73,0,0,0,1317,155.6a14.33,14.33,0,0,0-6,1.25,14.67,14.67,0,0,0-4.74,3.34,15.19,15.19,0,0,0-3.08,4.93,16.48,16.48,0,0,0-1.11,6v.14a16.36,16.36,0,0,0,1.15,6.15,15.22,15.22,0,0,0,3.19,5,14.7,14.7,0,0,0,4.8,3.34,14.76,14.76,0,0,0,16.63-3.37,15.09,15.09,0,0,0,3.09-4.94,16.4,16.4,0,0,0,1.11-6Z"/><path class="cls-1" d="M42.05,72.29c-.21-.54-.4-1.09-.6-1.63a71.85,71.85,0,0,0,14.4,49.05,78.09,78.09,0,0,0,46.32,9.79l1.08-.12a8.56,8.56,0,0,0,1.53-.44A8.15,8.15,0,0,0,110,121.8,78.06,78.06,0,0,1,42.05,72.29Z"/><path class="cls-1" d="M109.43,118.35a8.14,8.14,0,0,0-5.05-4.79l0,0A78,78,0,0,1,49.46,43.05a71.07,71.07,0,0,0-8,27.61c.2.54.39,1.09.6,1.63A78.06,78.06,0,0,0,110,121.8,8,8,0,0,0,109.43,118.35Z"/><path class="cls-1" d="M36,89.29a78.06,78.06,0,0,1,32.54-77.1A75.68,75.68,0,0,1,79,6.13h0a.88.88,0,0,0,.52-.79s0-.27,0-.37-.1-.46-.15-.68a6.86,6.86,0,0,0-.32-.9c-1,.28-2.08.59-3.11.92A78,78,0,0,0,21.59,80a76.94,76.94,0,0,0,1.08,11.54A77.85,77.85,0,0,0,63.94,148a78.69,78.69,0,0,0,15.16,5.88,8.14,8.14,0,0,0-3.79-9.21l0,0A77.81,77.81,0,0,1,36,89.29Z"/><path class="cls-1" d="M79.1,153.83a8.15,8.15,0,0,1-6.53,5.94,7.78,7.78,0,0,1-1.59.11l-1.08-.11A78,78,0,0,1,56.09,7.39a80.35,80.35,0,0,1,8.92-2l.28,0v0l.26,0a18,18,0,0,0,9.72-5A.84.84,0,0,1,75.9,0a.79.79,0,0,1,.34.06l.15.11A7.16,7.16,0,0,1,79,3.37c-1,.28-2.08.59-3.11.92A78,78,0,0,0,21.59,80a76.94,76.94,0,0,0,1.08,11.54A77.85,77.85,0,0,0,63.94,148,78.69,78.69,0,0,0,79.1,153.83Z"/></g></g></svg>