<svg xmlns="http://www.w3.org/2000/svg" viewBox="0 0 375.37 338.35"><defs><style>.cls-1{fill:#e6e6e6;}</style></defs><title>firma</title><g id="Capa_2" data-name="Capa 2"><g id="SVG"><path class="cls-1" d="M364.32,317.67c-8.91.72-38.82,3-51.21.42-4.17-.86-8.48-1.07-12.57-2.32a58.3,58.3,0,0,1-7.23-3.07c-2.1-1-4.36-.48-6.55,0-4.22.83-8.39,2-12.59,2.92a139.7,139.7,0,0,1-26.28,3.93,23.27,23.27,0,0,1-6.89-.66c-.29-.12-.55-.24-.8-.36s-.56-.28-.8-.42a7.75,7.75,0,0,1-1.27-.94,4.14,4.14,0,0,1-1.2-1.88,5,5,0,0,1-.15-1.08c-.24-1.55-.42-3.12-.63-4.67-.36-2.59-2.5-4-4.87-3a54.53,54.53,0,0,0-5.81,2.94c-5.88,3.36-11.62,7-17.62,10.13-6.38,3.35-16.12,1.65-20.94-3.73-2.51-2.8-4.29-6.26-6.29-9.48-.22-.35.07-1.27.41-1.67,8-9.42,14.26-20,20.15-30.8,10-18.39,18.08-37.63,25.18-57.32,5.29-14.65,9.4-29.53,10.65-45.1.3-3.73.6-7.51-.85-11.13-1.65-4.12-6.4-4.72-8.82-4.33a18.16,18.16,0,0,0-7.24,3.61,81.53,81.53,0,0,0-9.43,9.52c-6.06,7.07-10.26,15.37-15,23.35-13,22-20.92,45.73-25.89,70.6-2.76,13.78-2.27,27.33,3.06,40.53a2.6,2.6,0,0,1-.49,2.15c-6.31,7.55-14.31,13-22.76,17.82A22.93,22.93,0,0,1,134,326.46a27.28,27.28,0,0,1-4.4-1.54c1.88-2.88,3.51-5.28,5-7.75s3.1-5.06,4.56-7.64c13.15-23.31,22.68-48.2,31.13-73.48,9.23-27.64,13.42-56.36,16.37-85.27.55-5.36.74-10.77-.76-16.06-1.74-6.16-5.5-7.29-9.91-2.61a63.24,63.24,0,0,0-8.2,10.8c-10,16.67-18,34.31-25.15,52.34-10.48,26.53-17.83,54-23.23,82-2,10.49-3.24,21.07-2.13,31.78.49,4.72,1.29,9.37,3.69,13.57,1.52,2.68,1,4.11-1.41,6.08-1.26,1-5.06.33-11.59-3.19-5.39-2.9-9.08.31-12.33,3.14-.83.72-1.68,1.47-2.62,2.18-1.42,1.1-4.66-2-7-4.19a21.67,21.67,0,0,0-4.63-3.71c-4.13-2.07-7,1.7-8.89,4.19-1,1.37-2.22,2.92-3.27,3.39a2.73,2.73,0,0,0,2.26,5c2.3-1.05,3.92-3.18,5.35-5.06a14.52,14.52,0,0,1,2.23-2.56,23.89,23.89,0,0,1,3.2,2.74c2.66,2.51,6.33,6,10.14,6a6.38,6.38,0,0,0,4-1.43c1.06-.81,2-1.65,2.87-2.39,3.37-2.94,4.28-3.47,6.16-2.45,4.56,2.45,11.11,6,16.27,3.67a12.41,12.41,0,0,0,3-2.27,20,20,0,0,0,1.83-2.2c3.3,2.31,6.92,2.89,10.67,2.91a29,29,0,0,0,14.65-3.61c8.41-4.76,16.43-10.06,23-17.3.35-.38.76-.72,1.25-1.17.36.56.68,1,.92,1.46,4.33,8.67,11.17,13.75,20.89,15,3.71.46,7.28.4,10.64-1.28q6.49-3.25,12.83-6.81c3.1-1.74,6.06-3.74,9.3-5.77.22,1,.37,1.81.54,2.57a9.85,9.85,0,0,0,6.33,7.7l0,0c7.35,3,19.58.71,25.24-.24,8.71-1.45,17.16-4.11,25.84-5.64a5.18,5.18,0,0,1,4.11.65,59.88,59.88,0,0,0,11.28,3.72c15.26,4.08,53.05.89,65.92-.72,1.63-.21,4.78,0,5.31-2C376.38,314.84,366.1,317.53,364.32,317.67ZM125.61,320a83.67,83.67,0,0,1-2.18-8.35c-1.58-10.23-.71-20.41,1.16-30.52,5.57-30.08,13.52-59.5,25-87.85a372.79,372.79,0,0,1,21.41-44.67c2-3.45,4.5-6.59,6.63-10,3.92-6.2,3.46.76,3.55,2.41.43,8.15-.86,16.18-1.85,24.22a408.3,408.3,0,0,1-12.29,62.47c-4.87,17-11.88,33.14-18.43,49.49a239.66,239.66,0,0,1-20.5,39.61A18.44,18.44,0,0,1,125.61,320Zm51.84-20.52a56.54,56.54,0,0,1-3.41-15.3c-.72-10.27,1-20.28,3.57-30.16,3.7-14.24,7.37-28.54,14.19-41.68,5.86-11.27,12-22.38,18.63-33.24,2.95-4.85,7-9.08,11-13.2a25.41,25.41,0,0,1,6.3-4.74,2.33,2.33,0,0,1,3.17,1.49,22.06,22.06,0,0,1,.55,4.11c-.06,9.14-1.78,18.05-3.89,26.89-2.93,12.35-7.74,24.08-12.19,35.91a323.58,323.58,0,0,1-27.55,56c-3,4.88-6.46,9.48-9.71,14.21Z"/><path class="cls-1" d="M184,28c-4.62-14-14-23-28.29-26.65a50.33,50.33,0,0,0-22.05-.33C121.34,3.4,110.08,8.42,99.56,15.23c-12,7.81-21.62,18.13-30,29.61C53.93,66.16,43,89.77,35.26,115c-7.13,23.27-10.85,47.2-13.51,71.32-1.9,17.25-2.33,34.58-2.35,51.91a2.36,2.36,0,0,1-1.55,2.58c-2.35,1.05-4.62,2.3-7,3.37-1.21.55-2.54.83-3.77,1.33a54.43,54.43,0,0,0-5.53,2.42,2.85,2.85,0,0,0-1.27,3.9,3,3,0,0,0,3.8,1.6c.27-.07.53-.17.8-.26,4-1.36,4-1.36,6,2.34l.16.3c4.75,8.7,6.89,18.34,9.85,27.68a6.76,6.76,0,0,1,.14,1.5c.69,7.88,1.27,15.77,2.1,23.63.86,8,2,16.05,4.68,23.73a20.19,20.19,0,0,0,2.41,4.57,3.15,3.15,0,0,0,3.7,1.32,3.19,3.19,0,0,0,2.35-3,23.55,23.55,0,0,0,.2-4,52.22,52.22,0,0,0-.77-7.52C33,310.34,30,297,27.16,283.72a12.23,12.23,0,0,1-.38-2c-.52-12.39-1-24.77-1.53-37.16a1.94,1.94,0,0,1,1.14-2c2.21-1.32,4.39-2.7,6.55-4.11,12.42-8.09,27.39-18.69,37.11-24.19a80.63,80.63,0,0,1,7.65-3.57,35.06,35.06,0,0,1,25.46-1.21,3.11,3.11,0,0,1,1.45,1c1.26,1.75,2.76,2.27,4.25,1.36a3.07,3.07,0,0,0,.87-4.44,12.12,12.12,0,0,0-4-3.14A39.92,39.92,0,0,0,95.11,202a37.45,37.45,0,0,0-17.33,2.49,101.61,101.61,0,0,0-13,6c-6.77,3.85-13.11,8.4-19.56,12.77-4.66,3.16-9.31,6.34-14,9.45-1.87,1.24-3.75,2.44-6,3.9V234.7c.19-19.59,1-39.13,3.6-58.57C31.91,153,36,130.13,43.65,108,51.57,85.24,62.2,63.9,76.94,44.7,87.48,31,100.13,19.89,116,12.82,126,8.4,136.23,5.39,147.3,6c15.38.88,26.92,9.71,31.29,24.47a52.87,52.87,0,0,1,2.34,12.86c.27,7.54-.13,15.12-.32,22.68-.06,2.26.72,3.66,2.51,3.88s3.14-1,3.31-3.35c.28-3.8.55-7.61.66-11.42C187.35,46,186.94,36.87,184,28ZM19.54,259.46c-1.7-3.26-3.49-6.69-5.41-10.35l5.41-2.65Z"/></g></g></svg>